<svg
                    width="24"
                    height="24"
                    viewBox="0 0 24 24"
                    fill="none"
                    >
                    <path
                        d="M14.738 19.9964C14.8186 19.9988 14.8994 20 14.9806 20C15.656 20 16.2955 19.92 16.91 19.76C16.0433 19.9264 15.0994 20 14.5194 20H7.51941C3.92956 20 1.01941 17.0899 1.01941 13.5C1.01941 9.91015 3.92956 7 7.51941 7H8.73522C10.2013 5.17108 12.4542 4 14.9806 4C17.36 4 19.4 5.12 20.73 6.88C18.98 5.33 16.2 5 14.9806 5C11.6669 5 8.98059 8.68629 8.98059 12H6.98059C6.98059 10.9391 7.1871 9.92643 7.56211 9H7.51941C5.03413 9 3.01941 11.0147 3.01941 13.5C3.01941 15.9853 5.03413 18 7.51941 18H14.5194C14.5926 18 14.6654 17.9988 14.738 17.9964Z"
                        fill="#fff"
                    />
                    <path
                        d="M15.5 2L22 6V11C22 16.55 18.16 21.74 15 23V20.95C17.9 19.2 20 15.64 20 11V7.39L15.5 4.32V2Z"
                        fill="#ffffff"
                    />
                </svg>
